<svg xmlns="http://www.w3.org/2000/svg" xmlns:xlink="http://www.w3.org/1999/xlink" viewBox="0 0 24 36"><g><defs><linearGradient id="idss2004863385_1g-894452121" x1="0" x2="1" y1="9.97803636381834e-17" y2="1"><stop offset="0" stop-color="hsl(0, 100%, 50%)" stop-opacity="1"></stop><stop offset="1" stop-color="hsl(58, 100%, 50%)" stop-opacity="1"></stop></linearGradient></defs><path d="M 0 5 C 0 2.239 2.239 0 5 0 L 19 0 C 21.761 0 24 2.239 24 5 L 24 31 C 24 33.761 21.761 36 19 36 L 5 36 C 2.239 36 0 33.761 0 31 Z" fill="url(#idss2004863385_1g-894452121)"></path></g><path d="M 2.5 6 C 2.5 4.343 3.843 3 5.5 3 L 18.5 3 C 20.157 3 21.5 4.343 21.5 6 L 21.5 30 C 21.5 31.657 20.157 33 18.5 33 L 5.5 33 C 3.843 33 2.5 31.657 2.5 30 Z" fill="#121212"></path></svg>